<mxfile host="65bd71144e">
    <diagram name="Страница — 1" id="_zAK5w3Cm06P-InScq93">
        <mxGraphModel dx="1131" dy="507" grid="1" gridSize="10" guides="1" tooltips="1" connect="1" arrows="1" fold="1" page="1" pageScale="1" pageWidth="827" pageHeight="1169" math="0" shadow="0">
            <root>
                <mxCell id="0"/>
                <mxCell id="1" parent="0"/>
                <mxCell id="3" value="&lt;div style=&quot;text-align: center ; font-size: 13px&quot;&gt;&lt;b style=&quot;font-size: 13px&quot;&gt;Student&lt;/b&gt;&lt;/div&gt;&lt;hr style=&quot;font-size: 13px&quot;&gt;&lt;table style=&quot;font-size: 13px&quot;&gt;&lt;tbody style=&quot;font-size: 13px&quot;&gt;&lt;tr style=&quot;font-size: 13px&quot;&gt;&lt;td style=&quot;font-size: 13px;&quot;&gt;&lt;u&gt;id&lt;/u&gt;&lt;/td&gt;&lt;td style=&quot;font-size: 13px&quot;&gt;&lt;blockquote style=&quot;margin: 0px 0px 0px 40px; border: none; padding: 0px; font-size: 13px;&quot;&gt;id&lt;/blockquote&gt;&lt;/td&gt;&lt;td style=&quot;font-size: 13px&quot;&gt;&lt;blockquote style=&quot;margin: 0px 0px 0px 40px; border: none; padding: 0px; font-size: 13px;&quot;&gt;M, PK&lt;/blockquote&gt;&lt;/td&gt;&lt;/tr&gt;&lt;tr style=&quot;font-size: 13px&quot;&gt;&lt;td style=&quot;font-size: 13px;&quot;&gt;first_name&lt;/td&gt;&lt;td style=&quot;font-size: 13px&quot;&gt;&lt;blockquote style=&quot;margin: 0px 0px 0px 40px; border: none; padding: 0px; font-size: 13px;&quot;&gt;name&lt;/blockquote&gt;&lt;/td&gt;&lt;td style=&quot;font-size: 13px&quot;&gt;&lt;blockquote style=&quot;margin: 0px 0px 0px 40px; border: none; padding: 0px; font-size: 13px;&quot;&gt;M&lt;/blockquote&gt;&lt;/td&gt;&lt;/tr&gt;&lt;tr style=&quot;font-size: 13px&quot;&gt;&lt;td style=&quot;font-size: 13px;&quot;&gt;last_name&lt;/td&gt;&lt;td style=&quot;font-size: 13px&quot;&gt;&lt;blockquote style=&quot;margin: 0px 0px 0px 40px; border: none; padding: 0px; font-size: 13px;&quot;&gt;name&lt;/blockquote&gt;&lt;/td&gt;&lt;td style=&quot;font-size: 13px&quot;&gt;&lt;blockquote style=&quot;margin: 0px 0px 0px 40px; border: none; padding: 0px; font-size: 13px;&quot;&gt;M&lt;/blockquote&gt;&lt;/td&gt;&lt;/tr&gt;&lt;tr style=&quot;font-size: 13px&quot;&gt;&lt;td style=&quot;font-size: 13px;&quot;&gt;has_academ&lt;/td&gt;&lt;td style=&quot;font-size: 13px&quot;&gt;&lt;blockquote style=&quot;margin: 0px 0px 0px 40px; border: none; padding: 0px; font-size: 13px;&quot;&gt;sex&lt;/blockquote&gt;&lt;/td&gt;&lt;td style=&quot;font-size: 13px&quot;&gt;&lt;blockquote style=&quot;margin: 0px 0px 0px 40px; border: none; padding: 0px; font-size: 13px;&quot;&gt;M&lt;/blockquote&gt;&lt;/td&gt;&lt;/tr&gt;&lt;/tbody&gt;&lt;/table&gt;" style="rounded=0;whiteSpace=wrap;html=1;labelBackgroundColor=none;fontFamily=Verdana;fontSize=13;align=left;verticalAlign=top;" vertex="1" parent="1">
                    <mxGeometry x="130" y="40" width="250" height="130" as="geometry"/>
                </mxCell>
                <mxCell id="4" value="&lt;div style=&quot;text-align: center ; font-size: 13px&quot;&gt;&lt;b&gt;Group&lt;/b&gt;&lt;/div&gt;&lt;hr style=&quot;font-size: 13px&quot;&gt;&lt;table style=&quot;font-size: 13px&quot;&gt;&lt;tbody style=&quot;font-size: 13px&quot;&gt;&lt;tr style=&quot;font-size: 13px&quot;&gt;&lt;td style=&quot;font-size: 13px;&quot;&gt;&lt;u&gt;id&lt;/u&gt;&lt;/td&gt;&lt;td style=&quot;font-size: 13px&quot;&gt;&lt;blockquote style=&quot;margin: 0px 0px 0px 40px; border: none; padding: 0px; font-size: 13px;&quot;&gt;id&lt;/blockquote&gt;&lt;/td&gt;&lt;td style=&quot;font-size: 13px&quot;&gt;&lt;blockquote style=&quot;margin: 0px 0px 0px 40px; border: none; padding: 0px; font-size: 13px;&quot;&gt;M, PK&lt;/blockquote&gt;&lt;/td&gt;&lt;/tr&gt;&lt;tr style=&quot;font-size: 13px&quot;&gt;&lt;td style=&quot;font-size: 13px;&quot;&gt;name&lt;/td&gt;&lt;td style=&quot;font-size: 13px&quot;&gt;&lt;blockquote style=&quot;margin: 0px 0px 0px 40px; border: none; padding: 0px; font-size: 13px;&quot;&gt;name&lt;/blockquote&gt;&lt;/td&gt;&lt;td style=&quot;font-size: 13px&quot;&gt;&lt;blockquote style=&quot;margin: 0px 0px 0px 40px; border: none; padding: 0px; font-size: 13px;&quot;&gt;M&lt;/blockquote&gt;&lt;/td&gt;&lt;/tr&gt;&lt;tr style=&quot;font-size: 13px&quot;&gt;&lt;td style=&quot;font-size: 13px;&quot;&gt;&lt;br&gt;&lt;/td&gt;&lt;td style=&quot;font-size: 13px&quot;&gt;&lt;blockquote style=&quot;margin: 0px 0px 0px 40px; border: none; padding: 0px; font-size: 13px;&quot;&gt;&lt;br&gt;&lt;/blockquote&gt;&lt;/td&gt;&lt;td style=&quot;font-size: 13px&quot;&gt;&lt;blockquote style=&quot;margin: 0px 0px 0px 40px; border: none; padding: 0px; font-size: 13px;&quot;&gt;&lt;br&gt;&lt;/blockquote&gt;&lt;/td&gt;&lt;/tr&gt;&lt;tr style=&quot;font-size: 13px&quot;&gt;&lt;td style=&quot;font-size: 13px;&quot;&gt;&lt;br&gt;&lt;/td&gt;&lt;td style=&quot;font-size: 13px&quot;&gt;&lt;blockquote style=&quot;margin: 0px 0px 0px 40px; border: none; padding: 0px; font-size: 13px;&quot;&gt;&lt;br&gt;&lt;/blockquote&gt;&lt;/td&gt;&lt;td style=&quot;font-size: 13px&quot;&gt;&lt;blockquote style=&quot;margin: 0px 0px 0px 40px; border: none; padding: 0px; font-size: 13px;&quot;&gt;&lt;br&gt;&lt;/blockquote&gt;&lt;/td&gt;&lt;/tr&gt;&lt;/tbody&gt;&lt;/table&gt;" style="rounded=0;whiteSpace=wrap;html=1;labelBackgroundColor=none;fontFamily=Verdana;fontSize=13;align=left;verticalAlign=top;" vertex="1" parent="1">
                    <mxGeometry x="820" y="30" width="210" height="80" as="geometry"/>
                </mxCell>
                <mxCell id="5" value="&lt;div style=&quot;text-align: center ; font-size: 13px&quot;&gt;&lt;b&gt;Lecturer&lt;/b&gt;&lt;/div&gt;&lt;hr style=&quot;font-size: 13px&quot;&gt;&lt;table style=&quot;font-size: 13px&quot;&gt;&lt;tbody style=&quot;font-size: 13px&quot;&gt;&lt;tr style=&quot;font-size: 13px&quot;&gt;&lt;td style=&quot;font-size: 13px;&quot;&gt;&lt;u&gt;id&lt;/u&gt;&lt;/td&gt;&lt;td style=&quot;font-size: 13px&quot;&gt;&lt;blockquote style=&quot;margin: 0px 0px 0px 40px; border: none; padding: 0px; font-size: 13px;&quot;&gt;id&lt;/blockquote&gt;&lt;/td&gt;&lt;td style=&quot;font-size: 13px&quot;&gt;&lt;blockquote style=&quot;margin: 0px 0px 0px 40px; border: none; padding: 0px; font-size: 13px;&quot;&gt;M, PK&lt;/blockquote&gt;&lt;/td&gt;&lt;/tr&gt;&lt;tr style=&quot;font-size: 13px&quot;&gt;&lt;td style=&quot;font-size: 13px;&quot;&gt;first_name&lt;/td&gt;&lt;td style=&quot;font-size: 13px&quot;&gt;&lt;blockquote style=&quot;margin: 0px 0px 0px 40px; border: none; padding: 0px; font-size: 13px;&quot;&gt;name&lt;/blockquote&gt;&lt;/td&gt;&lt;td style=&quot;font-size: 13px&quot;&gt;&lt;blockquote style=&quot;margin: 0px 0px 0px 40px; border: none; padding: 0px; font-size: 13px;&quot;&gt;M&lt;/blockquote&gt;&lt;/td&gt;&lt;/tr&gt;&lt;tr style=&quot;font-size: 13px&quot;&gt;&lt;td style=&quot;font-size: 13px;&quot;&gt;last_name&lt;/td&gt;&lt;td style=&quot;font-size: 13px&quot;&gt;&lt;blockquote style=&quot;margin: 0px 0px 0px 40px; border: none; padding: 0px; font-size: 13px;&quot;&gt;name&lt;/blockquote&gt;&lt;/td&gt;&lt;td style=&quot;font-size: 13px&quot;&gt;&lt;blockquote style=&quot;margin: 0px 0px 0px 40px; border: none; padding: 0px; font-size: 13px;&quot;&gt;M&lt;/blockquote&gt;&lt;/td&gt;&lt;/tr&gt;&lt;tr style=&quot;font-size: 13px&quot;&gt;&lt;td style=&quot;font-size: 13px;&quot;&gt;years&lt;/td&gt;&lt;td style=&quot;font-size: 13px&quot;&gt;&lt;blockquote style=&quot;margin: 0px 0px 0px 40px; border: none; padding: 0px; font-size: 13px;&quot;&gt;int&lt;/blockquote&gt;&lt;/td&gt;&lt;td style=&quot;font-size: 13px&quot;&gt;&lt;blockquote style=&quot;margin: 0px 0px 0px 40px; border: none; padding: 0px; font-size: 13px;&quot;&gt;M&lt;/blockquote&gt;&lt;/td&gt;&lt;/tr&gt;&lt;/tbody&gt;&lt;/table&gt;" style="rounded=0;whiteSpace=wrap;html=1;labelBackgroundColor=none;fontFamily=Verdana;fontSize=13;align=left;verticalAlign=top;" vertex="1" parent="1">
                    <mxGeometry x="110" y="340" width="250" height="130" as="geometry"/>
                </mxCell>
                <mxCell id="6" value="&lt;div style=&quot;text-align: center ; font-size: 13px&quot;&gt;&lt;b&gt;Course&lt;/b&gt;&lt;/div&gt;&lt;hr style=&quot;font-size: 13px&quot;&gt;&lt;table style=&quot;font-size: 13px&quot;&gt;&lt;tbody style=&quot;font-size: 13px&quot;&gt;&lt;tr style=&quot;font-size: 13px&quot;&gt;&lt;td style=&quot;font-size: 13px;&quot;&gt;&lt;u&gt;id&lt;/u&gt;&lt;/td&gt;&lt;td style=&quot;font-size: 13px&quot;&gt;&lt;blockquote style=&quot;margin: 0px 0px 0px 40px; border: none; padding: 0px; font-size: 13px;&quot;&gt;id&lt;/blockquote&gt;&lt;/td&gt;&lt;td style=&quot;font-size: 13px&quot;&gt;&lt;blockquote style=&quot;margin: 0px 0px 0px 40px; border: none; padding: 0px; font-size: 13px;&quot;&gt;M, PK&lt;/blockquote&gt;&lt;/td&gt;&lt;/tr&gt;&lt;tr style=&quot;font-size: 13px&quot;&gt;&lt;td style=&quot;font-size: 13px;&quot;&gt;name&lt;/td&gt;&lt;td style=&quot;font-size: 13px&quot;&gt;&lt;blockquote style=&quot;margin: 0px 0px 0px 40px; border: none; padding: 0px; font-size: 13px;&quot;&gt;name&lt;/blockquote&gt;&lt;/td&gt;&lt;td style=&quot;font-size: 13px&quot;&gt;&lt;blockquote style=&quot;margin: 0px 0px 0px 40px; border: none; padding: 0px; font-size: 13px;&quot;&gt;M&lt;/blockquote&gt;&lt;/td&gt;&lt;/tr&gt;&lt;tr style=&quot;font-size: 13px&quot;&gt;&lt;td style=&quot;font-size: 13px;&quot;&gt;term&lt;/td&gt;&lt;td style=&quot;font-size: 13px&quot;&gt;&lt;blockquote style=&quot;margin: 0px 0px 0px 40px; border: none; padding: 0px; font-size: 13px;&quot;&gt;int&lt;/blockquote&gt;&lt;/td&gt;&lt;td style=&quot;font-size: 13px&quot;&gt;&lt;blockquote style=&quot;margin: 0px 0px 0px 40px; border: none; padding: 0px; font-size: 13px;&quot;&gt;M&lt;/blockquote&gt;&lt;/td&gt;&lt;/tr&gt;&lt;tr style=&quot;font-size: 13px&quot;&gt;&lt;td style=&quot;font-size: 13px;&quot;&gt;&lt;br&gt;&lt;/td&gt;&lt;td style=&quot;font-size: 13px&quot;&gt;&lt;blockquote style=&quot;margin: 0px 0px 0px 40px; border: none; padding: 0px; font-size: 13px;&quot;&gt;&lt;br&gt;&lt;/blockquote&gt;&lt;/td&gt;&lt;td style=&quot;font-size: 13px&quot;&gt;&lt;blockquote style=&quot;margin: 0px 0px 0px 40px; border: none; padding: 0px; font-size: 13px;&quot;&gt;&lt;br&gt;&lt;/blockquote&gt;&lt;/td&gt;&lt;/tr&gt;&lt;/tbody&gt;&lt;/table&gt;" style="rounded=0;whiteSpace=wrap;html=1;labelBackgroundColor=none;fontFamily=Verdana;fontSize=13;align=left;verticalAlign=top;" vertex="1" parent="1">
                    <mxGeometry x="830" y="370" width="210" height="100" as="geometry"/>
                </mxCell>
                <mxCell id="7" value="student group" style="edgeStyle=entityRelationEdgeStyle;fontSize=12;html=1;endArrow=ERone;endFill=1;rounded=0;entryX=0;entryY=0.5;entryDx=0;entryDy=0;startArrow=ERmany;startFill=0;exitX=1;exitY=0.25;exitDx=0;exitDy=0;" edge="1" parent="1" source="3" target="4">
                    <mxGeometry width="100" height="100" relative="1" as="geometry">
                        <mxPoint x="350" y="70" as="sourcePoint"/>
                        <mxPoint x="520" y="180" as="targetPoint"/>
                    </mxGeometry>
                </mxCell>
                <mxCell id="8" value="student member" style="edgeStyle=entityRelationEdgeStyle;fontSize=12;html=1;endArrow=ERone;endFill=1;rounded=0;entryX=0;entryY=0.5;entryDx=0;entryDy=0;startArrow=ERmany;startFill=0;exitX=1.011;exitY=0.611;exitDx=0;exitDy=0;exitPerimeter=0;" edge="1" parent="1" source="3" target="12">
                    <mxGeometry width="100" height="100" relative="1" as="geometry">
                        <mxPoint x="44" y="270" as="sourcePoint"/>
                        <mxPoint x="540" y="190" as="targetPoint"/>
                    </mxGeometry>
                </mxCell>
                <mxCell id="9" value="lecturer member" style="edgeStyle=entityRelationEdgeStyle;fontSize=12;html=1;endArrow=ERmany;rounded=0;exitX=0;exitY=0.5;exitDx=0;exitDy=0;entryX=1;entryY=0.429;entryDx=0;entryDy=0;entryPerimeter=0;startArrow=ERone;startFill=0;" edge="1" parent="1" source="13" target="5">
                    <mxGeometry width="100" height="100" relative="1" as="geometry">
                        <mxPoint x="540" y="365" as="sourcePoint"/>
                        <mxPoint x="620" y="210" as="targetPoint"/>
                        <Array as="points">
                            <mxPoint x="610" y="460"/>
                        </Array>
                    </mxGeometry>
                </mxCell>
                <mxCell id="10" value="member course" style="edgeStyle=entityRelationEdgeStyle;fontSize=12;html=1;endArrow=ERmany;rounded=0;exitX=1;exitY=0.5;exitDx=0;exitDy=0;startArrow=ERone;startFill=0;" edge="1" parent="1" source="13" target="6">
                    <mxGeometry width="100" height="100" relative="1" as="geometry">
                        <mxPoint x="680" y="365" as="sourcePoint"/>
                        <mxPoint x="630" y="470" as="targetPoint"/>
                        <Array as="points">
                            <mxPoint x="880" y="534"/>
                        </Array>
                    </mxGeometry>
                </mxCell>
                <mxCell id="11" value="student course" style="edgeStyle=entityRelationEdgeStyle;fontSize=12;html=1;endArrow=ERmany;rounded=0;exitX=1;exitY=0.5;exitDx=0;exitDy=0;startArrow=ERone;startFill=0;entryX=0.5;entryY=0;entryDx=0;entryDy=0;" edge="1" parent="1" source="12" target="6">
                    <mxGeometry width="100" height="100" relative="1" as="geometry">
                        <mxPoint x="680" y="190" as="sourcePoint"/>
                        <mxPoint x="975" y="210" as="targetPoint"/>
                        <Array as="points">
                            <mxPoint x="945" y="374"/>
                        </Array>
                    </mxGeometry>
                </mxCell>
                <mxCell id="12" value="&lt;b&gt;Student_member&lt;/b&gt;&lt;div&gt;&lt;hr&gt;&lt;table style=&quot;font-family: Verdana; font-size: 13px; text-align: left;&quot;&gt;&lt;tbody&gt;&lt;tr&gt;&lt;td&gt;points&lt;/td&gt;&lt;td&gt;&lt;blockquote style=&quot;margin: 0px 0px 0px 40px; border: none; padding: 0px;&quot;&gt;int&lt;/blockquote&gt;&lt;/td&gt;&lt;td&gt;&lt;blockquote style=&quot;margin: 0px 0px 0px 40px; border: none; padding: 0px;&quot;&gt;M&lt;/blockquote&gt;&lt;/td&gt;&lt;/tr&gt;&lt;/tbody&gt;&lt;/table&gt;&lt;/div&gt;" style="rounded=1;whiteSpace=wrap;html=1;" vertex="1" parent="1">
                    <mxGeometry x="550" y="160" width="190" height="60" as="geometry"/>
                </mxCell>
                <mxCell id="13" value="&lt;b&gt;Lecturer_member&lt;/b&gt;&lt;div&gt;&lt;hr&gt;&lt;table style=&quot;font-family: Verdana; font-size: 13px; text-align: left;&quot;&gt;&lt;tbody&gt;&lt;tr&gt;&lt;td&gt;is_main&lt;/td&gt;&lt;td&gt;&lt;blockquote style=&quot;margin: 0px 0px 0px 40px; border: none; padding: 0px;&quot;&gt;boolean&lt;/blockquote&gt;&lt;/td&gt;&lt;td&gt;&lt;blockquote style=&quot;margin: 0px 0px 0px 40px; border: none; padding: 0px;&quot;&gt;M&lt;/blockquote&gt;&lt;/td&gt;&lt;/tr&gt;&lt;/tbody&gt;&lt;/table&gt;&lt;/div&gt;" style="rounded=1;whiteSpace=wrap;html=1;" vertex="1" parent="1">
                    <mxGeometry x="510" y="370" width="220" height="60" as="geometry"/>
                </mxCell>
            </root>
        </mxGraphModel>
    </diagram>
</mxfile>